<svg width="47" height="271" viewBox="0 0 47 271" fill="none" xmlns="http://www.w3.org/2000/svg">
<path d="M36.4905 271L34.1855 271L34.1855 0L36.4904 1.4773e-08L36.4905 271Z" fill="#3D3D3D"/>
<path d="M17.0964 81.1398L7.15527 90.4418L8.78783 91.9722L18.7272 82.6719L17.0964 81.1398Z" fill="#3D3D3D"/>
<path d="M34.3458 201.522L6.33105 175.213L7.9619 173.68L35.9766 199.989L34.3458 201.522Z" fill="#3D3D3D"/>
<path d="M18.7276 184.394L16.4209 184.394L16.4209 34.7298L18.7276 34.7298L18.7276 184.394Z" fill="#3D3D3D"/>
<path d="M17.9381 69.6944L46.9999 96.837L45.4621 98.2835L16.3984 71.1409L17.9381 69.6944Z" fill="#3D3D3D"/>
<path d="M4.7066 168.126C2.20309 168.126 0.166016 170.038 0.166016 172.392C0.166016 174.744 2.20309 176.656 4.7066 176.656C7.21011 176.656 9.24718 174.744 9.24718 172.392C9.24718 170.038 7.21011 168.126 4.7066 168.126ZM4.7066 174.742C3.32547 174.742 2.2031 173.687 2.2031 172.392C2.2031 171.094 3.32547 170.04 4.7066 170.04C6.0859 170.04 7.21012 171.094 7.21012 172.392C7.21012 173.687 6.08772 174.742 4.7066 174.742Z" fill="#3D3D3D"/>
<path d="M5.76714 89.334C3.26363 89.334 1.22656 91.2461 1.22656 93.5982C1.22656 95.9502 3.26363 97.864 5.76714 97.864C8.27065 97.864 10.3077 95.9502 10.3077 93.5982C10.3059 91.2478 8.26883 89.334 5.76714 89.334ZM5.76714 95.9519C4.38784 95.9519 3.26365 94.8974 3.26365 93.5998C3.26365 92.3023 4.38784 91.2478 5.76714 91.2478C7.14644 91.2478 8.27067 92.3023 8.27067 93.5998C8.26885 94.8957 7.14644 95.9519 5.76714 95.9519Z" fill="#3D3D3D"/>
<path d="M17.5746 27.2524C15.0711 27.2524 13.0322 29.1645 13.0322 31.5166C13.0322 33.8686 15.0711 35.7824 17.5746 35.7824C20.0781 35.7824 22.1152 33.8686 22.1152 31.5166C22.1152 29.1645 20.0781 27.2524 17.5746 27.2524ZM17.5746 33.8686C16.1953 33.8686 15.0711 32.8141 15.0711 31.5166C15.0711 30.219 16.1953 29.1645 17.5746 29.1645C18.9539 29.1645 20.0781 30.219 20.0781 31.5166C20.0781 32.8141 18.9557 33.8686 17.5746 33.8686Z" fill="#3D3D3D"/>
<path d="M13.3885 155.095L0 155.095L-4.22566e-08 150.702L13.3885 150.702L13.3885 155.095Z" fill="#3D3D3D"/>
<path d="M13.3885 146.953L0 146.953L-4.22561e-08 142.561L13.3885 142.561L13.3885 146.953Z" fill="#3D3D3D"/>
<path d="M13.3885 138.811L0 138.811L-4.22566e-08 134.419L13.3885 134.419L13.3885 138.811Z" fill="#3D3D3D"/>
<path d="M13.3885 130.67L0 130.67L-4.22566e-08 126.277L13.3885 126.277L13.3885 130.67Z" fill="#3D3D3D"/>
<path d="M13.3885 122.525L0 122.525L-4.22566e-08 118.133L13.3885 118.133L13.3885 122.525Z" fill="#3D3D3D"/>
<path d="M35.7034 101.826L17.3662 101.826L17.3662 100.905L35.7034 100.905L35.7034 101.826Z" fill="#3D3D3D"/>
<path d="M35.7034 106.12L17.3662 106.12L17.3662 105.199L35.7034 105.199L35.7034 106.12Z" fill="#3D3D3D"/>
<path d="M35.6998 110.415L17.3662 110.415L17.3662 109.494L35.6998 109.494L35.6998 110.415Z" fill="#3D3D3D"/>
<path d="M35.6998 114.711L17.3662 114.711L17.3662 113.79L35.6998 113.79L35.6998 114.711Z" fill="#3D3D3D"/>
<path d="M35.6998 119.005L17.3662 119.005L17.3662 118.084L35.6998 118.084L35.6998 119.005Z" fill="#3D3D3D"/>
<path d="M35.6998 123.299L17.3662 123.299L17.3662 122.378L35.6998 122.378L35.6998 123.299Z" fill="#3D3D3D"/>
<path d="M35.6998 127.594L17.3662 127.594L17.3662 126.673L35.6998 126.673L35.6998 127.594Z" fill="#3D3D3D"/>
</svg>
