<svg width="126" height="267" viewBox="0 0 126 267" fill="none" xmlns="http://www.w3.org/2000/svg">
<g opacity="0.4" clip-path="url(#clip0_2_738)">
<path d="M198 -3H-72V267H198V-3Z" fill="black"/>
<path d="M198.34 -3.34009V267.34H-72.3401V-3.34009H198.34ZM-71.6599 266.66H197.66V-2.65981H-71.6599V266.66Z" fill="#2B2A29"/>
<path fill-rule="evenodd" clip-rule="evenodd" d="M123.365 110.229C111.376 131.86 88.593 145.281 63.8616 145.281C39.1302 145.281 16.337 131.866 4.34857 110.235C3.85945 109.352 3.60223 108.359 3.60223 107.349C3.60223 104.061 6.26734 101.396 9.55494 101.396C11.7098 101.396 13.6964 102.561 14.7488 104.441C24.6354 122.299 43.4488 133.376 63.8616 133.376C84.2743 133.376 103.088 122.299 112.974 104.441C114.027 102.561 116.013 101.396 118.168 101.396C121.456 101.396 124.121 104.061 124.121 107.349C124.121 108.359 123.854 109.346 123.365 110.229L123.365 110.229Z" fill="#FEFEFE"/>
<path d="M123.78 107.349C123.78 104.249 121.268 101.736 118.169 101.736C116.137 101.736 114.264 102.835 113.271 104.607C103.325 122.572 84.3975 133.716 63.8618 133.716C43.3261 133.716 24.3992 122.572 14.4523 104.607L14.2555 104.282C13.2247 102.702 11.4598 101.736 9.55508 101.736C6.45536 101.736 3.94239 104.249 3.94239 107.349C3.94241 108.301 4.18518 109.237 4.64639 110.07C16.5749 131.593 39.2541 144.942 63.8618 144.942C88.4694 144.942 111.139 131.587 123.068 110.064C123.53 109.229 123.78 108.298 123.78 107.349ZM124.462 107.349C124.462 108.342 124.214 109.31 123.767 110.189L123.772 110.195L123.663 110.394C111.614 132.133 88.7168 145.622 63.8618 145.622C39.3953 145.622 16.8157 132.557 4.62354 111.413L4.05137 110.4C3.53439 109.466 3.26214 108.417 3.26212 107.349C3.26212 103.874 6.07961 101.056 9.55508 101.056C11.7618 101.056 13.8015 102.211 14.9384 104.09L15.0456 104.275L15.0465 104.275C24.8731 122.025 43.5727 133.036 63.8618 133.036C84.1509 133.036 102.851 122.025 112.677 104.275V104.275C113.79 102.287 115.891 101.056 118.169 101.056C121.644 101.056 124.462 103.874 124.462 107.349Z" fill="#FEFEFE"/>
<path d="M63.8749 128.252C92.0544 128.252 114.898 105.408 114.898 77.2281C114.898 49.0486 92.0544 26.2046 63.8749 26.2046C35.6954 26.2046 12.8514 49.0486 12.8514 77.2281C12.8514 105.408 35.6954 128.252 63.8749 128.252Z" fill="black"/>
<path d="M112.347 77.2278C112.347 50.4574 90.645 28.7561 63.8746 28.7561C37.1043 28.7563 15.4031 50.4576 15.4029 77.2278C15.4029 103.998 37.1042 125.7 63.8746 125.7C90.6451 125.7 112.347 103.998 112.347 77.2278ZM117.449 77.2278C117.449 106.816 93.463 130.802 63.8746 130.802C34.2863 130.802 10.3 106.816 10.3 77.2278C10.3001 47.6396 34.2864 23.6534 63.8746 23.6532C93.4629 23.6532 117.449 47.6395 117.449 77.2278Z" fill="#FEFEFE"/>
<path fill-rule="evenodd" clip-rule="evenodd" d="M53.245 203.631C56.7673 203.631 59.6229 200.776 59.6229 197.254V163.238H63.8748H68.1267V197.254C68.1267 200.776 70.9823 203.631 74.5047 203.631C78.027 203.631 80.8826 200.776 80.8826 197.254V133.354H63.8747H46.8669V197.254C46.8669 200.776 49.7225 203.631 53.2448 203.631H53.245Z" fill="#FEFEFE"/>
<path d="M80.5422 133.694H47.2071V197.254C47.2072 200.588 49.9108 203.291 53.2452 203.291C56.5794 203.291 59.2822 200.588 59.2824 197.254V162.897H68.4669V197.254C68.4671 200.588 71.1707 203.291 74.505 203.291C77.8392 203.291 80.5421 200.588 80.5422 197.254V133.694ZM81.2225 197.254C81.2223 200.964 78.215 203.971 74.505 203.971C70.7949 203.971 67.7868 200.964 67.7867 197.254V163.578H59.9626V197.254C59.9625 200.964 56.9552 203.971 53.2452 203.971C49.5351 203.971 46.5269 200.964 46.5268 197.254V133.014H81.2225V197.254Z" fill="#FEFEFE"/>
<path d="M49.4185 43.2124V111.243H44.3156V43.2124H49.4185Z" fill="#FEFEFE"/>
<path d="M94.9661 116.429L92.4146 120.848L45.5918 93.8144L48.1424 89.3953L94.9661 116.429Z" fill="#FEFEFE"/>
<path d="M61.1961 39.1775L74.5337 62.2789L46.8671 62.8514L61.1962 39.1775H61.1961ZM94.9658 38.0271L67.3199 53.9886L64.7687 49.57L92.4146 33.6085L94.9658 38.0271Z" fill="#FEFEFE"/>
<path d="M46.8668 74.6766V79.7796H12.8514V74.6766H46.8668Z" fill="#FEFEFE"/>
<path d="M20.0978 239.066V217.646H12.4657V213.291H32.9135V217.646H25.3178V239.066H20.0978ZM36.2556 217.862V213.291H41.1875V217.862H36.2556ZM36.2556 239.066V220.383H41.1875V239.066H36.2556ZM52.7195 239.066V217.646H45.0874V213.291H65.5352V217.646H57.9395V239.066H52.7195ZM90.7292 239.066H85.1074L82.8811 233.198H72.5434L70.4014 239.066H64.8813L74.8894 213.291H80.4034L90.7292 239.066ZM81.1891 228.842L77.6072 219.302L74.1271 228.842H81.189H81.1891ZM94.7732 239.066V213.291H99.8252L110.433 230.564V213.291H115.257V239.066H110.043L99.597 222.122V239.066H94.7732Z" fill="#FEFEFE"/>
<path d="M63.8749 150.362C73.2681 150.362 80.8827 142.747 80.8827 133.354C80.8827 123.961 73.2681 116.346 63.8749 116.346C54.4817 116.346 46.8671 123.961 46.8671 133.354C46.8671 142.747 54.4817 150.362 63.8749 150.362Z" fill="#1F1B20"/>
<path d="M80.0326 133.354C80.0325 124.43 72.7982 117.197 63.8748 117.197C54.9513 117.197 47.7179 124.43 47.7178 133.354C47.7178 142.277 54.9513 149.511 63.8748 149.512C72.7983 149.512 80.0326 142.277 80.0326 133.354ZM81.7333 133.354C81.7333 143.217 73.7376 151.212 63.8748 151.212C54.012 151.212 46.0163 143.217 46.0163 133.354C46.0163 123.491 54.012 115.495 63.8748 115.495C73.7375 115.495 81.7332 123.491 81.7333 133.354Z" fill="#FEFEFE"/>
<path d="M63.8616 146.982C71.3761 146.982 77.4678 140.891 77.4678 133.376C77.4678 125.861 71.3761 119.77 63.8616 119.77C56.3471 119.77 50.2554 125.861 50.2554 133.376C50.2554 140.891 56.3471 146.982 63.8616 146.982Z" fill="#FEFEFE"/>
</g>
<defs>
<clipPath id="clip0_2_738">
<rect width="126" height="267" fill="white"/>
</clipPath>
</defs>
</svg>
