<svg width="63" height="63" viewBox="0 0 63 63" fill="none" xmlns="http://www.w3.org/2000/svg">
<g clip-path="url(#clip0_1_2)">
<path d="M63 0H0V63H63V0Z" fill="black"/>
<path d="M63.0794 -0.079361V63.0794H-0.0793457V-0.079361H63.0794ZM0.0793848 62.9206H62.9207V0.0793695H0.0793848V62.9206Z" fill="#2B2A29"/>
<path fill-rule="evenodd" clip-rule="evenodd" d="M45.5852 26.4201C42.7879 31.4674 37.4717 34.599 31.7011 34.599C25.9304 34.599 20.612 31.4687 17.8147 26.4214C17.7006 26.2154 17.6406 25.9837 17.6406 25.7481C17.6406 24.981 18.2624 24.3591 19.0295 24.3591C19.5323 24.3591 19.9959 24.6309 20.2414 25.0695C22.5483 29.2364 26.9381 31.821 31.7011 31.821C36.4641 31.821 40.8538 29.2364 43.1607 25.0695C43.4063 24.6309 43.8698 24.3591 44.3726 24.3591C45.1397 24.3591 45.7616 24.981 45.7616 25.7481C45.7616 25.9837 45.6993 26.214 45.5851 26.4201L45.5852 26.4201Z" fill="#FEFEFE"/>
<path d="M45.6821 25.7481C45.6821 25.0249 45.0959 24.4385 44.3727 24.4385C43.8986 24.4385 43.4615 24.6947 43.23 25.1083C40.909 29.3002 36.4928 31.9004 31.7011 31.9004C26.9094 31.9004 22.4931 29.3002 20.1722 25.1083L20.1263 25.0326C19.8857 24.6637 19.4739 24.4385 19.0295 24.4385C18.3062 24.4385 17.7199 25.0248 17.7199 25.7481C17.7199 25.9703 17.7765 26.1887 17.8842 26.383C20.6675 31.405 25.9593 34.5197 31.7011 34.5197C37.4429 34.5197 42.7325 31.4036 45.5158 26.3816C45.6237 26.1868 45.6821 25.9696 45.6821 25.7481ZM45.841 25.7481C45.841 25.9798 45.7833 26.2057 45.679 26.4107L45.6802 26.4121L45.6546 26.4585C42.8433 31.531 37.5006 34.6784 31.7011 34.6784C25.9922 34.6784 20.7237 31.6301 17.8788 26.6964L17.7453 26.4599C17.6247 26.2421 17.5612 25.9972 17.5612 25.7481C17.5612 24.9372 18.2186 24.2797 19.0295 24.2797C19.5444 24.2797 20.0204 24.5493 20.2856 24.9877L20.3106 25.0307L20.3108 25.0309C22.6037 29.1726 26.967 31.7417 31.7011 31.7417C36.4352 31.7417 40.7985 29.1726 43.0913 25.0309V25.0307C43.3509 24.5671 43.8411 24.2797 44.3727 24.2797C45.1836 24.2798 45.841 24.9372 45.841 25.7481Z" fill="#FEFEFE"/>
<path d="M31.7042 30.6254C38.2794 30.6254 43.6097 25.2951 43.6097 18.7199C43.6097 12.1447 38.2794 6.81441 31.7042 6.81441C25.129 6.81441 19.7987 12.1447 19.7987 18.7199C19.7987 25.2951 25.129 30.6254 31.7042 30.6254Z" fill="black"/>
<path d="M43.0144 18.7198C43.0143 12.4734 37.9505 7.40975 31.7041 7.40975C25.4577 7.4098 20.3941 12.4734 20.3941 18.7198C20.3941 24.9662 25.4577 30.03 31.7041 30.0301C37.9506 30.0301 43.0144 24.9663 43.0144 18.7198ZM44.2049 18.7198C44.2049 25.6238 38.6081 31.2206 31.7041 31.2206C24.8002 31.2205 19.2034 25.6238 19.2034 18.7198C19.2034 11.8159 24.8002 6.21911 31.7041 6.21907C38.6081 6.21907 44.2048 11.8159 44.2049 18.7198Z" fill="#FEFEFE"/>
<path fill-rule="evenodd" clip-rule="evenodd" d="M29.2239 48.214C30.0457 48.214 30.712 47.5477 30.712 46.7258V38.7888H31.7042H32.6963V46.7258C32.6963 47.5477 33.3626 48.214 34.1845 48.214C35.0063 48.214 35.6726 47.5477 35.6726 46.7258V31.8159H31.7042H27.7357V46.7258C27.7357 47.5477 28.402 48.214 29.2238 48.214H29.2239Z" fill="#FEFEFE"/>
<path d="M35.5932 31.8953H27.815V46.7259C27.815 47.5039 28.4459 48.1346 29.2239 48.1346C30.0019 48.1346 30.6325 47.5039 30.6325 46.7259V38.7094H32.7756V46.7259C32.7757 47.5039 33.4065 48.1346 34.1845 48.1346C34.9625 48.1345 35.5931 47.5039 35.5932 46.7259V31.8953ZM35.7519 46.7259C35.7519 47.5915 35.0502 48.2933 34.1845 48.2933C33.3188 48.2933 32.6169 47.5916 32.6169 46.7259V38.8681H30.7913V46.7259C30.7912 47.5916 30.0895 48.2933 29.2239 48.2933C28.3582 48.2933 27.6563 47.5916 27.6562 46.7259V31.7365H35.7519V46.7259Z" fill="#FEFEFE"/>
<path d="M28.331 10.7829V26.6568H27.1403V10.7829H28.331Z" fill="#FEFEFE"/>
<path d="M38.9588 27.8667L38.3634 28.8978L27.4381 22.59L28.0332 21.5589L38.9588 27.8667Z" fill="#FEFEFE"/>
<path d="M31.0791 9.84142L34.1912 15.2317L27.7357 15.3653L31.0791 9.84142H31.0791ZM38.9587 9.573L32.508 13.2974L31.9127 12.2663L38.3634 8.54199L38.9587 9.573Z" fill="#FEFEFE"/>
<path d="M27.7356 18.1245V19.3152H19.7987V18.1245H27.7356Z" fill="#FEFEFE"/>
<path d="M21.4895 56.4821V51.4841H19.7087V50.4678H24.4798V51.4841H22.7075V56.4821H21.4895ZM25.2596 51.5345V50.4678H26.4104V51.5345H25.2596ZM25.2596 56.4821V52.1226H26.4104V56.4821H25.2596ZM29.1012 56.4821V51.4841H27.3204V50.4678H32.0916V51.4841H30.3192V56.4821H29.1012ZM37.9702 56.4821H36.6584L36.1389 55.1129H33.7268L33.227 56.4821H31.939L34.2742 50.4678H35.5608L37.9702 56.4821ZM35.7441 54.0965L34.9084 51.8706L34.0963 54.0965H35.7441H35.7441ZM38.9138 56.4821V50.4678H40.0926L42.5677 54.4984V50.4678H43.6933V56.4821H42.4768L40.0393 52.5286V56.4821H38.9138Z" fill="#FEFEFE"/>
<path d="M31.7042 35.7844C33.8959 35.7844 35.6726 34.0076 35.6726 31.8159C35.6726 29.6242 33.8959 27.8474 31.7042 27.8474C29.5124 27.8474 27.7357 29.6242 27.7357 31.8159C27.7357 34.0076 29.5124 35.7844 31.7042 35.7844Z" fill="#1F1B20"/>
<path d="M35.4743 31.8159C35.4743 29.7337 33.7863 28.0459 31.7042 28.0459C29.622 28.0459 27.9342 29.7337 27.9342 31.8159C27.9342 33.898 29.622 35.586 31.7042 35.586C33.7863 35.586 35.4743 33.898 35.4743 31.8159ZM35.8711 31.8159C35.8711 34.1172 34.0055 35.9828 31.7042 35.9828C29.4028 35.9828 27.5372 34.1172 27.5372 31.8159C27.5372 29.5146 29.4029 27.6489 31.7042 27.6489C34.0055 27.6489 35.8711 29.5146 35.8711 31.8159Z" fill="#FEFEFE"/>
<path d="M31.701 34.9958C33.4544 34.9958 34.8758 33.5744 34.8758 31.8211C34.8758 30.0677 33.4544 28.6463 31.701 28.6463C29.9476 28.6463 28.5262 30.0677 28.5262 31.8211C28.5262 33.5744 29.9476 34.9958 31.701 34.9958Z" fill="#FEFEFE"/>
</g>
<defs>
<clipPath id="clip0_1_2">
<rect width="63" height="63" fill="white"/>
</clipPath>
</defs>
</svg>
