<svg width="47" height="271" viewBox="0 0 47 271" fill="none" xmlns="http://www.w3.org/2000/svg">
<path d="M10.5095 -6.68933e-09L12.8145 0L12.8145 271L10.5096 271L10.5095 -6.68933e-09Z" fill="#3D3D3D"/>
<path d="M29.9036 189.86L39.8447 180.558L38.2122 179.028L28.2728 188.328L29.9036 189.86Z" fill="#3D3D3D"/>
<path d="M12.6542 69.4785L40.6689 95.7871L39.0381 97.3199L11.0234 71.0113L12.6542 69.4785Z" fill="#3D3D3D"/>
<path d="M28.2724 86.6057L30.5791 86.6057L30.5791 236.27L28.2724 236.27L28.2724 86.6057Z" fill="#3D3D3D"/>
<path d="M29.0619 201.306L7.86074e-05 174.163L1.53791 172.716L30.6016 199.859L29.0619 201.306Z" fill="#3D3D3D"/>
<path d="M42.2934 102.874C44.7969 102.874 46.834 100.962 46.834 98.6084C46.834 96.2563 44.7969 94.3442 42.2934 94.3442C39.7899 94.3442 37.7528 96.2563 37.7528 98.6084C37.7528 100.962 39.7899 102.874 42.2934 102.874ZM42.2934 96.258C43.6745 96.258 44.7969 97.3125 44.7969 98.6084C44.7969 99.9059 43.6745 100.96 42.2934 100.96C40.9141 100.96 39.7899 99.9059 39.7899 98.6084C39.7899 97.3125 40.9123 96.258 42.2934 96.258Z" fill="#3D3D3D"/>
<path d="M41.2329 181.666C43.7364 181.666 45.7734 179.754 45.7734 177.402C45.7734 175.05 43.7364 173.136 41.2329 173.136C38.7293 173.136 36.6923 175.05 36.6923 177.402C36.6941 179.752 38.7312 181.666 41.2329 181.666ZM41.2329 175.048C42.6122 175.048 43.7364 176.103 43.7364 177.4C43.7364 178.698 42.6122 179.752 41.2329 179.752C39.8536 179.752 38.7293 178.698 38.7293 177.4C38.7312 176.104 39.8536 175.048 41.2329 175.048Z" fill="#3D3D3D"/>
<path d="M29.4254 243.748C31.9289 243.748 33.9678 241.835 33.9678 239.483C33.9678 237.131 31.9289 235.218 29.4254 235.218C26.9219 235.218 24.8848 237.131 24.8848 239.483C24.8848 241.835 26.9219 243.748 29.4254 243.748ZM29.4254 237.131C30.8047 237.131 31.9289 238.186 31.9289 239.483C31.9289 240.781 30.8047 241.835 29.4254 241.835C28.0461 241.835 26.9219 240.781 26.9219 239.483C26.9219 238.186 28.0443 237.131 29.4254 237.131Z" fill="#3D3D3D"/>
<path d="M33.6115 115.905L47 115.905L47 120.298L33.6115 120.298L33.6115 115.905Z" fill="#3D3D3D"/>
<path d="M33.6115 124.047L47 124.047L47 128.439L33.6115 128.439L33.6115 124.047Z" fill="#3D3D3D"/>
<path d="M33.6115 132.189L47 132.189L47 136.581L33.6115 136.581L33.6115 132.189Z" fill="#3D3D3D"/>
<path d="M33.6115 140.33L47 140.33L47 144.723L33.6115 144.723L33.6115 140.33Z" fill="#3D3D3D"/>
<path d="M33.6115 148.475L47 148.475L47 152.867L33.6115 152.867L33.6115 148.475Z" fill="#3D3D3D"/>
<path d="M11.2966 169.174L29.6338 169.174L29.6338 170.095L11.2966 170.095L11.2966 169.174Z" fill="#3D3D3D"/>
<path d="M11.2966 164.88L29.6338 164.88L29.6338 165.801L11.2966 165.801L11.2966 164.88Z" fill="#3D3D3D"/>
<path d="M11.3002 160.585L29.6338 160.585L29.6338 161.506L11.3002 161.506L11.3002 160.585Z" fill="#3D3D3D"/>
<path d="M11.3002 156.289L29.6338 156.289L29.6338 157.21L11.3002 157.21L11.3002 156.289Z" fill="#3D3D3D"/>
<path d="M11.3002 151.995L29.6338 151.995L29.6338 152.916L11.3002 152.916L11.3002 151.995Z" fill="#3D3D3D"/>
<path d="M11.3002 147.701L29.6338 147.701L29.6338 148.622L11.3002 148.622L11.3002 147.701Z" fill="#3D3D3D"/>
<path d="M11.3002 143.406L29.6338 143.406L29.6338 144.327L11.3002 144.327L11.3002 143.406Z" fill="#3D3D3D"/>
</svg>
